<?xml version="1.0" encoding="UTF-8"?>
<svg width="128px" height="128px" viewBox="0 0 128 128" version="1.1" xmlns="http://www.w3.org/2000/svg" xmlns:xlink="http://www.w3.org/1999/xlink">
    <!-- Generator: Sketch 49.1 (51147) - http://www.bohemiancoding.com/sketch -->
    <title>Icon_128@scalable</title>
    <desc>Created with Sketch.</desc>
    <defs>
        <linearGradient x1="50%" y1="100%" x2="50%" y2="3.061617e-15%" id="linearGradient-1">
            <stop stop-color="#006601" offset="0%"></stop>
            <stop stop-color="#00C85E" offset="100%"></stop>
        </linearGradient>
        <path d="M119.658537,53.4375 C119.658537,45.4891304 109.731707,37.9565217 94.5121951,33.2853261 C98.0243902,17.7309783 96.4634146,5.35597826 89.5853659,1.39402174 C88,0.464673913 86.1463415,0.0244565217 84.1219512,0.0244565217 L84.1219512,5.47826087 C85.2439024,5.47826087 86.1463415,5.69836957 86.902439,6.11413043 C90.2195122,8.02173913 91.6585366,15.2853261 90.5365854,24.6277174 C90.2682927,26.9266304 89.8292683,29.3478261 89.2926829,31.8179348 C84.5121951,30.6440217 79.2926829,29.7391304 73.804878,29.1521739 C70.5121951,24.6277174 67.097561,20.5190217 63.6585366,16.923913 C71.6097561,9.51358696 79.0731707,5.45380435 84.1463415,5.45380435 L84.1463415,0 C77.4390244,0 68.6585366,4.79347826 59.7804878,13.1086957 C50.902439,4.8423913 42.1219512,0.097826087 35.4146341,0.097826087 L35.4146341,5.55163043 C40.4634146,5.55163043 47.9512195,9.58695652 55.902439,16.9483696 C52.4878049,20.5434783 49.0731707,24.6277174 45.8292683,29.1521739 C40.3170732,29.7391304 35.097561,30.6440217 30.3170732,31.8423913 C29.7560976,29.3967391 29.3414634,27.0244565 29.0487805,24.75 C27.902439,15.4076087 29.3170732,8.14402174 32.6097561,6.21195652 C33.3414634,5.77173913 34.2926829,5.57608696 35.4146341,5.57608696 L35.4146341,0.122282609 C33.3658537,0.122282609 31.5121951,0.5625 29.902439,1.49184783 C23.0487805,5.45380435 21.5121951,17.8043478 25.0487805,33.3097826 C9.87804878,38.0054348 0,45.513587 0,53.4375 C0,61.3858696 9.92682927,68.9184783 25.1463415,73.5896739 C21.6341463,89.1440217 23.195122,101.519022 30.0731707,105.480978 C31.6585366,106.410326 33.5121951,106.850543 35.5609756,106.850543 C42.2682927,106.850543 51.0487805,102.057065 59.9268293,93.7418478 C68.804878,102.008152 77.5853659,106.752717 84.2926829,106.752717 C86.3414634,106.752717 88.195122,106.3125 89.804878,105.383152 C96.6585366,101.421196 98.195122,89.0706522 94.6585366,73.5652174 C109.780488,68.8940217 119.658537,61.361413 119.658537,53.4375 Z M87.902439,37.125 C87,40.2798913 85.8780488,43.5326087 84.6097561,46.7853261 C83.6097561,44.8288043 82.5609756,42.8722826 81.4146341,40.9157609 C80.2926829,38.9592391 79.097561,37.0516304 77.902439,35.1929348 C81.3658537,35.7065217 84.7073171,36.3423913 87.902439,37.125 Z M76.7317073,63.1711957 C74.8292683,66.4728261 72.8780488,69.6032609 70.8536585,72.513587 C67.2195122,72.8315217 63.5365854,73.0027174 59.8292683,73.0027174 C56.1463415,73.0027174 52.4634146,72.8315217 48.8536585,72.5380435 C46.8292683,69.6277174 44.8536585,66.5217391 42.9512195,63.2445652 C41.097561,60.0407609 39.4146341,56.7880435 37.8780488,53.5108696 C39.3902439,50.2336957 41.097561,46.9565217 42.9268293,43.7527174 C44.8292683,40.451087 46.7804878,37.3206522 48.804878,34.4103261 C52.4390244,34.0923913 56.1219512,33.9211957 59.8292683,33.9211957 C63.5121951,33.9211957 67.195122,34.0923913 70.804878,34.3858696 C72.8292683,37.2961957 74.804878,40.4021739 76.7073171,43.6793478 C78.5609756,46.8831522 80.2439024,50.1358696 81.7804878,53.4130435 C80.2439024,56.6902174 78.5609756,59.9673913 76.7317073,63.1711957 Z M84.6097561,59.9918478 C85.9268293,63.2690217 87.0487805,66.5461957 87.9756098,69.7255435 C84.7804878,70.5081522 81.4146341,71.1684783 77.9268293,71.6820652 C79.1219512,69.798913 80.3170732,67.8668478 81.4390244,65.8858696 C82.5609756,63.9293478 83.6097561,61.9483696 84.6097561,59.9918478 Z M59.8780488,86.0869565 C57.6097561,83.7391304 55.3414634,81.1222826 53.097561,78.2608696 C55.2926829,78.3586957 57.5365854,78.4320652 59.804878,78.4320652 C62.097561,78.4320652 64.3658537,78.3831522 66.5853659,78.2608696 C64.3902439,81.1222826 62.1219512,83.7391304 59.8780488,86.0869565 Z M41.7317073,71.6820652 C38.2682927,71.1684783 34.9268293,70.5326087 31.7317073,69.75 C32.6341463,66.5951087 33.7560976,63.3423913 35.0243902,60.0896739 C36.0243902,62.0461957 37.0731707,64.0027174 38.2195122,65.9592391 C39.3658537,67.9157609 40.5365854,69.8233696 41.7317073,71.6820652 Z M59.7560976,20.7880435 C62.0243902,23.1358696 64.2926829,25.7527174 66.5365854,28.6141304 C64.3414634,28.5163043 62.097561,28.4429348 59.8292683,28.4429348 C57.5365854,28.4429348 55.2682927,28.4918478 53.0487805,28.6141304 C55.2439024,25.7527174 57.5121951,23.1358696 59.7560976,20.7880435 Z M41.7073171,35.1929348 C40.5121951,37.076087 39.3170732,39.0081522 38.195122,40.9891304 C37.0731707,42.9456522 36.0243902,44.9021739 35.0243902,46.8586957 C33.7073171,43.5815217 32.5853659,40.3043478 31.6585366,37.125 C34.8536585,36.3668478 38.2195122,35.7065217 41.7073171,35.1929348 Z M19.6341463,65.8125 C11,62.1195652 5.41463415,57.2771739 5.41463415,53.4375 C5.41463415,49.5978261 11,44.7309783 19.6341463,41.0625 C21.7317073,40.1576087 24.0243902,39.3505435 26.3902439,38.5923913 C27.7804878,43.3858696 29.6097561,48.375 31.8780488,53.486413 C29.6341463,58.5733696 27.8292683,63.5380435 26.4634146,68.3070652 C24.0487805,67.548913 21.7560976,66.7173913 19.6341463,65.8125 Z M32.7560976,100.76087 C29.4390244,98.8532609 28,91.5896739 29.1219512,82.2472826 C29.3902439,79.9483696 29.8292683,77.5271739 30.3658537,75.0570652 C35.1463415,76.2309783 40.3658537,77.1358696 45.8536585,77.7228261 C49.1463415,82.2472826 52.5609756,86.3559783 56,89.951087 C48.0487805,97.361413 40.5853659,101.421196 35.5121951,101.421196 C34.4146341,101.396739 33.4878049,101.17663 32.7560976,100.76087 Z M90.6097561,82.125 C91.7560976,91.4673913 90.3414634,98.7309783 87.0487805,100.663043 C86.3170732,101.103261 85.3658537,101.298913 84.2439024,101.298913 C79.195122,101.298913 71.7073171,97.263587 63.7560976,89.9021739 C67.1707317,86.3070652 70.5853659,82.2228261 73.8292683,77.6983696 C79.3414634,77.111413 84.5609756,76.2065217 89.3414634,75.0081522 C89.902439,77.4782609 90.3414634,79.8505435 90.6097561,82.125 Z M100,65.8125 C97.902439,66.7173913 95.6097561,67.5244565 93.2439024,68.2826087 C91.8536585,63.4891304 90.0243902,58.5 87.7560976,53.388587 C90,48.3016304 91.804878,43.3369565 93.1707317,38.5679348 C95.5853659,39.326087 97.8780488,40.1576087 100.02439,41.0625 C108.658537,44.7554348 114.243902,49.5978261 114.243902,53.4375 C114.219512,57.2771739 108.634146,62.1440217 100,65.8125 Z" id="path-2"></path>
        <linearGradient x1="50%" y1="320.551371%" x2="50%" y2="-218.831383%" id="linearGradient-3">
            <stop stop-color="#006601" offset="0%"></stop>
            <stop stop-color="#00C85E" offset="100%"></stop>
        </linearGradient>
        <ellipse id="path-4" cx="59.9756098" cy="53.4375" rx="11.1463415" ry="11.1766304"></ellipse>
    </defs>
    <g id="Icon_128" stroke="none" stroke-width="1" fill="none" fill-rule="evenodd">
        <g id="React-icon" transform="translate(4.000000, 11.000000)" fill-rule="nonzero">
            <g>
                <g id="Shape" stroke-linejoin="round">
                    <use fill="url(#linearGradient-1)" fill-rule="evenodd" xlink:href="#path-2"></use>
                    <path stroke="#000000" stroke-width="4" d="M96.9989066,74.9157349 C100.253057,90.656626 98.2464989,102.813358 90.8048415,107.115224 C88.9006446,108.214559 86.7103289,108.752717 84.2926829,108.752717 C77.3729698,108.752717 68.728296,104.304449 59.9309394,96.452062 C51.1208228,104.365372 42.4774691,108.850543 35.5609756,108.850543 C33.1373237,108.850543 30.9442601,108.30992 29.0748884,107.21402 C21.6108034,102.914489 19.5784545,90.7367208 22.8089301,74.9447856 C7.54040367,69.912831 -2,62.0686863 -2,53.4375 C-2,44.8345768 7.48610478,37.0156458 22.7085666,31.96002 C19.4541962,16.2187627 21.4606992,4.0617107 28.9024756,-0.240224082 C30.266848,-1.02790647 31.7781092,-1.52748984 33.4146341,-1.74744135 L33.4146341,-1.90217391 L35.4146341,-1.90217391 C35.7113625,-1.90217391 36.0112629,-1.89399429 36.3142111,-1.87771739 L37.4146341,-1.87771739 L37.4146341,-1.78464309 C43.9642655,-1.03396451 51.8076848,3.28574723 59.7763777,10.3984815 C67.7463766,3.2397709 75.5799007,-1.11343074 82.1219512,-1.87856285 L82.1219512,-1.97554348 L83.2509123,-1.97554348 C83.5524569,-1.99182039 83.8509738,-2 84.1463415,-2 L86.1463415,-2 L86.1463415,-1.8398841 C87.7626432,-1.61667393 89.2556492,-1.11754569 90.5836482,-0.339019631 C98.0477332,3.96051085 100.080082,16.1382792 96.8496065,31.9302144 C112.118133,36.962169 121.658537,44.8063137 121.658537,53.4375 C121.658537,62.0409669 112.166499,69.88309 96.9989066,74.9157349 Z M84.2816578,41.9063232 C83.8077013,43.2656405 83.295216,44.6512392 82.7463952,46.0587683 L86.3906255,45.875104 C85.6687131,44.4626668 84.9751739,43.1550447 84.2816578,41.9063232 Z M81.9554937,37.8953246 C81.2564774,36.7398515 80.4855359,35.5122819 79.5846946,34.111262 L77.6090687,37.1713012 C79.0973841,37.3920023 80.5458329,37.6331028 81.9554937,37.8953246 Z M85.377209,38.5903761 C86.0703458,38.743652 86.7534361,38.9026859 87.4266271,39.0675764 L85.9795589,36.5749709 C85.7898021,37.2383533 85.5889172,37.9103565 85.377209,38.5903761 Z M74.9968328,62.1760946 C76.5991252,59.3696096 78.1251657,56.439749 79.5680822,53.4133269 C78.129598,50.4002284 76.6024097,47.4916521 74.9776392,44.6834467 C73.2806314,41.7601521 71.5159025,38.9600416 69.6995174,36.3055738 C66.3217125,36.0523137 63.0273044,35.9211957 59.8292683,35.9211957 C56.552855,35.9211957 53.2446315,36.0571312 49.9151391,36.3242292 C48.1733496,38.8780646 46.4323856,41.6748461 44.6636604,44.7443916 C42.97955,47.6939645 41.4449167,50.6281624 40.0877813,53.5049867 C41.5270466,56.5200813 43.0551204,59.4305214 44.6808974,62.2404663 C46.3779052,65.163761 48.142634,67.9638714 49.9590192,70.6183392 C53.3368241,70.8715993 56.6312322,71.0027174 59.8292683,71.0027174 C63.1056813,71.0027174 66.4139047,70.8667819 69.7433968,70.5996839 C71.4845725,68.0467405 73.2252218,65.2505102 74.9968328,62.1760946 Z M74.9968328,62.1760946 C74.9974895,62.1749549 74.9981463,62.1738152 74.998803,62.1726754 L74.9948762,62.1795215 C74.9955284,62.1783792 74.9961806,62.1772369 74.9968328,62.1760946 Z M85.4434068,68.2639438 C85.6551214,68.9378441 85.8592263,69.6118798 86.0555318,70.285276 L87.4997978,67.7829671 C86.8203365,67.9493934 86.1346979,68.1097657 85.4434068,68.2639438 Z M81.9500708,68.981103 C80.5296621,69.2480686 79.0900514,69.4892113 77.6354668,69.7034021 L79.61547,72.7537426 C80.5007142,71.3588645 81.2596161,70.1354324 81.9500708,68.981103 Z M84.3070527,64.8559241 C84.9761133,63.6317515 85.6598066,62.331933 86.3906255,60.9020699 L82.7540165,60.7376565 C83.3014531,62.0998017 83.8196829,63.4748074 84.3070527,64.8559241 Z M57.4326529,80.4077856 C56.5091408,79.3234187 55.5881115,78.1957441 54.6713594,77.0267065 L53.0085189,80.2588865 C54.621858,80.3307853 56.0663425,80.3806216 57.4326529,80.4077856 Z M62.2876486,80.4119204 C63.81951,80.3862463 65.2833347,80.3356372 66.6953877,80.2578411 L64.9985206,77.0435273 C64.1179305,78.1914052 63.2130091,79.3151539 62.2876486,80.4119204 Z M59.8714613,83.1644385 C59.3957712,83.6853727 58.9158576,84.1990446 58.4321979,84.7051044 L61.3164151,84.6973154 C60.8346871,84.1986965 60.3529519,83.6876466 59.8714613,83.1644385 Z M34.2569374,68.2846239 C33.5638006,68.131348 32.8807103,67.9723141 32.2075193,67.8074236 L33.6545874,70.3000291 C33.8443443,69.6366467 34.0452292,68.9646435 34.2569374,68.2846239 Z M35.3524885,64.9686768 C35.8264451,63.6093595 36.3389304,62.2237608 36.8877511,60.8162317 L33.2435209,60.999896 C33.9654332,62.4123332 34.6589724,63.7199553 35.3524885,64.9686768 Z M37.6913844,68.982043 C38.4665793,70.26388 39.2526001,71.5244465 40.0494517,72.763738 L42.0250777,69.7036988 C40.5412426,69.4836621 39.0970345,69.2433486 37.6913844,68.982043 Z M62.2014935,26.4672144 C63.1250055,27.5515813 64.0460349,28.6792559 64.9627869,29.8482935 L66.6256274,26.6161135 C65.0122883,26.5442147 63.5678038,26.4943784 62.2014935,26.4672144 Z M57.3464978,26.4630796 C55.8146364,26.4887537 54.3508116,26.5393628 52.9387586,26.6171589 L54.6356258,29.8314727 C55.5162158,28.6835948 56.4211373,27.5598461 57.3464978,26.4630796 Z M59.7626851,23.7105615 C60.2383752,23.1896273 60.7182887,22.6759554 61.2019485,22.1698956 L58.3177313,22.1776846 C58.7994593,22.6763035 59.2811945,23.1873534 59.7626851,23.7105615 Z M35.331007,42.0057074 C34.6333873,43.2749715 33.9406303,44.5845638 33.2435209,45.9484735 L36.8801298,46.112887 C36.3341583,44.754387 35.8172373,43.3830954 35.331007,42.0057074 Z M34.194472,38.5984777 C33.9814236,37.9206197 33.7760734,37.2426201 33.5786146,36.5652674 L32.120284,39.0709674 C32.8094295,38.9074441 33.5009348,38.7498958 34.194472,38.5984777 Z M37.6853683,37.8917357 C39.1178521,37.6244432 40.5565616,37.383953 41.9986796,37.1715979 L40.0186763,34.1212574 C39.1339846,35.515265 38.3754775,36.7380405 37.6853683,37.8917357 Z M20.4196634,63.9732164 C21.8880574,64.5993703 23.4621049,65.1981545 25.1319733,65.7673614 C26.3684424,61.7532252 27.8931702,57.646608 29.6942277,53.4888915 C27.8709116,49.3063512 26.3243586,45.1746573 25.0666314,41.1353524 C23.3216802,41.7302258 21.8000309,42.3062963 20.4162409,42.9032412 C12.4679913,46.2802955 7.41463415,50.679677 7.41463415,53.4375 C7.41463415,56.1858745 12.4518503,60.5650971 20.4196634,63.9732164 Z M33.7486575,99.0245291 C34.1665701,99.260566 34.7696211,99.4041545 35.5121951,99.4211957 C39.7387962,99.4211957 46.2072854,95.9828739 53.1514092,89.8371161 C50.2977816,86.7341355 47.483756,83.3067657 44.7601576,79.6143329 C40.2884528,79.1061146 35.9719642,78.3862621 31.9081395,77.4737522 C31.5554501,79.2752892 31.2885876,80.9357139 31.1076832,82.4857541 C30.0764164,91.0730241 31.3688353,97.6485952 33.7486631,99.024533 Z M87.8171463,77.4294379 C83.7711538,78.3534012 79.4496337,79.0776417 74.9302345,79.5894432 C72.3043234,83.1946767 69.5103069,86.6071325 66.6052904,89.7793455 C73.5409705,95.8738376 80.0305799,99.298913 84.2439024,99.298913 C85.0642651,99.298913 85.6533891,99.1684933 86.0366118,98.9380755 C88.4082022,97.5464847 89.6786474,90.9584366 88.6246443,82.3685796 L88.6235269,82.3592937 C88.4420142,80.8205167 88.173915,79.1887773 87.8171463,77.4294379 Z M92.5954373,81.8860624 C92.59562,81.8876104 92.5958027,81.8891584 92.5959853,81.8907063 L92.5948679,81.8814204 C92.5950578,81.8829677 92.5952476,81.884515 92.5954373,81.8860622 Z M94.5022214,41.1074815 C93.2657437,45.1216677 91.7409997,49.2283378 89.9399186,53.3861085 C91.7632369,57.5686536 93.3097913,61.7003524 94.5675194,65.7396618 C96.3118839,65.1450288 97.8315213,64.5698141 99.2077727,63.976097 L99.2179054,63.9717588 C107.163741,60.59573 112.226354,56.1937119 112.243902,53.4375 C112.243902,50.689012 107.20627,46.3095411 99.247424,42.9054117 C97.7494474,42.2738691 96.1658006,41.6740726 94.5022214,41.1074815 Z M100.787167,67.6510857 C100.785476,67.6518043 100.783785,67.6525227 100.782095,67.6532412 L100.792227,67.648903 C100.790541,67.6496305 100.788854,67.6503581 100.787167,67.6510856 Z"></path>
                </g>
                <g id="Oval">
                    <use fill="url(#linearGradient-3)" fill-rule="evenodd" xlink:href="#path-4"></use>
                    <ellipse stroke="#000000" stroke-width="4" cx="59.9756098" cy="53.4375" rx="9.14634146" ry="9.17663043"></ellipse>
                </g>
            </g>
        </g>
    </g>
</svg>